<svg width="20" height="20" viewBox="0 0 20 20" fill="none" xmlns="http://www.w3.org/2000/svg">
<path d="M1.66699 7.49996V5.41663C1.66699 3.34163 3.34199 1.66663 5.41699 1.66663H7.50033" stroke="#0077B6" stroke-width="1.5" stroke-linecap="round" stroke-linejoin="round"/>
<path d="M12.5 1.66663H14.5833C16.6583 1.66663 18.3333 3.34163 18.3333 5.41663V7.49996" stroke="#0077B6" stroke-width="1.5" stroke-linecap="round" stroke-linejoin="round"/>
<path d="M18.333 13.3334V14.5834C18.333 16.6584 16.658 18.3334 14.583 18.3334H13.333" stroke="#0077B6" stroke-width="1.5" stroke-linecap="round" stroke-linejoin="round"/>
<path d="M7.50033 18.3333H5.41699C3.34199 18.3333 1.66699 16.6583 1.66699 14.5833V12.5" stroke="#0077B6" stroke-width="1.5" stroke-linecap="round" stroke-linejoin="round"/>
<path d="M14.1663 7.91663V12.0833C14.1663 13.75 13.333 14.5833 11.6663 14.5833H8.33301C6.66634 14.5833 5.83301 13.75 5.83301 12.0833V7.91663C5.83301 6.24996 6.66634 5.41663 8.33301 5.41663H11.6663C13.333 5.41663 14.1663 6.24996 14.1663 7.91663Z" stroke="#0077B6" stroke-width="1.5" stroke-linecap="round" stroke-linejoin="round"/>
<path d="M15.8337 10H4.16699" stroke="#0077B6" stroke-width="1.5" stroke-linecap="round" stroke-linejoin="round"/>
</svg>
