<svg width="75" height="14" viewBox="0 0 75 14" fill="none" xmlns="http://www.w3.org/2000/svg">
<path d="M6.99996 12.8334C10.2083 12.8334 12.8333 10.2084 12.8333 7.00002C12.8333 3.79169 10.2083 1.16669 6.99996 1.16669C3.79163 1.16669 1.16663 3.79169 1.16663 7.00002C1.16663 10.2084 3.79163 12.8334 6.99996 12.8334Z" stroke="white" stroke-width="1.5" stroke-linecap="round" stroke-linejoin="round"/>
<path d="M4.52087 7.00002L6.17171 8.65085L9.47921 5.34918" stroke="white" stroke-width="1.5" stroke-linecap="round" stroke-linejoin="round"/>
<path d="M22.2968 12H20.6661L24.3302 1.81818H26.1051L29.7691 12H28.1384L25.2599 3.66761H25.1803L22.2968 12ZM22.5703 8.01278H27.86V9.3054H22.5703V8.01278ZM34.0737 12.1541C33.3346 12.1541 32.6982 11.9867 32.1646 11.652C31.6343 11.3139 31.2267 10.8482 30.9416 10.255C30.6566 9.66169 30.5141 8.98224 30.5141 8.21662C30.5141 7.44105 30.6599 6.75663 30.9516 6.16335C31.2432 5.56676 31.6542 5.10109 32.1845 4.76633C32.7148 4.43158 33.3396 4.2642 34.0588 4.2642C34.6388 4.2642 35.1559 4.37192 35.6099 4.58736C36.064 4.79948 36.4303 5.09777 36.7087 5.48224C36.9904 5.86671 37.1578 6.31581 37.2108 6.82955H35.7641C35.6845 6.47159 35.5022 6.16335 35.2172 5.90483C34.9355 5.64631 34.5576 5.51705 34.0837 5.51705C33.6694 5.51705 33.3064 5.62642 32.9949 5.84517C32.6866 6.06061 32.4464 6.36884 32.274 6.76989C32.1017 7.16761 32.0155 7.63826 32.0155 8.18182C32.0155 8.73864 32.1 9.21922 32.269 9.62358C32.4381 10.0279 32.6767 10.3411 32.9849 10.5632C33.2965 10.7853 33.6627 10.8963 34.0837 10.8963C34.3654 10.8963 34.6206 10.8449 34.8493 10.7422C35.0813 10.6361 35.2752 10.4853 35.431 10.2898C35.5901 10.0942 35.7011 9.8589 35.7641 9.58381H37.2108C37.1578 10.0777 36.997 10.5185 36.7286 10.9062C36.4601 11.294 36.1005 11.599 35.6497 11.821C35.2023 12.0431 34.6769 12.1541 34.0737 12.1541ZM42.2251 4.36364V5.55682H38.0539V4.36364H42.2251ZM39.1725 2.53409H40.659V9.75781C40.659 10.0462 40.7021 10.2633 40.7883 10.4091C40.8745 10.5516 40.9855 10.6494 41.1214 10.7024C41.2606 10.7521 41.4114 10.777 41.5738 10.777C41.6931 10.777 41.7975 10.7687 41.887 10.7521C41.9765 10.7356 42.0461 10.7223 42.0958 10.7124L42.3643 11.9403C42.2781 11.9735 42.1555 12.0066 41.9964 12.0398C41.8373 12.0762 41.6384 12.0961 41.3998 12.0994C41.0087 12.1061 40.6441 12.0365 40.3061 11.8906C39.968 11.7448 39.6946 11.5194 39.4857 11.2145C39.2769 10.9096 39.1725 10.5268 39.1725 10.0661V2.53409ZM43.7294 12V4.36364H45.216V12H43.7294ZM44.4802 3.18537C44.2216 3.18537 43.9996 3.09919 43.814 2.92685C43.6317 2.75118 43.5405 2.54238 43.5405 2.30043C43.5405 2.05516 43.6317 1.84635 43.814 1.67401C43.9996 1.49834 44.2216 1.41051 44.4802 1.41051C44.7387 1.41051 44.9591 1.49834 45.1414 1.67401C45.327 1.84635 45.4198 2.05516 45.4198 2.30043C45.4198 2.54238 45.327 2.75118 45.1414 2.92685C44.9591 3.09919 44.7387 3.18537 44.4802 3.18537ZM53.6084 4.36364L50.8393 12H49.2484L46.4742 4.36364H48.0701L50.004 10.2401H50.0836L52.0126 4.36364H53.6084ZM56.869 12.169C56.3851 12.169 55.9476 12.0795 55.5565 11.9006C55.1654 11.7183 54.8555 11.4548 54.6268 11.1101C54.4014 10.7654 54.2888 10.3428 54.2888 9.84233C54.2888 9.41146 54.3716 9.05682 54.5373 8.77841C54.7031 8.5 54.9268 8.27959 55.2085 8.11719C55.4902 7.95478 55.8051 7.83215 56.1531 7.74929C56.5011 7.66643 56.8558 7.60346 57.217 7.56037C57.6744 7.50734 58.0456 7.46425 58.3307 7.43111C58.6157 7.39465 58.8228 7.33665 58.9521 7.2571C59.0814 7.17756 59.146 7.0483 59.146 6.86932V6.83452C59.146 6.40033 59.0234 6.06392 58.7781 5.82528C58.5362 5.58665 58.1749 5.46733 57.6943 5.46733C57.1938 5.46733 56.7994 5.57836 56.5111 5.80043C56.226 6.01918 56.0288 6.26278 55.9194 6.53125L54.5224 6.21307C54.6881 5.74905 54.9301 5.37453 55.2483 5.08949C55.5698 4.80114 55.9393 4.59233 56.3569 4.46307C56.7746 4.33049 57.2137 4.2642 57.6744 4.2642C57.9793 4.2642 58.3025 4.30066 58.6439 4.37358C58.9886 4.44318 59.3101 4.57244 59.6084 4.76136C59.91 4.95028 60.1569 5.22041 60.3491 5.57173C60.5414 5.91974 60.6375 6.37216 60.6375 6.92898V12H59.1858V10.956H59.1261C59.03 11.1482 58.8858 11.3371 58.6936 11.5227C58.5014 11.7083 58.2544 11.8625 57.9528 11.9851C57.6512 12.1077 57.2899 12.169 56.869 12.169ZM57.1922 10.9759C57.6032 10.9759 57.9545 10.8946 58.2461 10.7322C58.5411 10.5698 58.7648 10.3577 58.9173 10.0959C59.0731 9.83073 59.151 9.54735 59.151 9.24574V8.26136C59.0979 8.31439 58.9952 8.36411 58.8427 8.41051C58.6936 8.4536 58.5229 8.49171 58.3307 8.52486C58.1384 8.55469 57.9512 8.58286 57.7689 8.60938C57.5866 8.63258 57.4341 8.65246 57.3115 8.66903C57.0231 8.70549 56.7596 8.76681 56.521 8.85298C56.2857 8.93916 56.0968 9.06345 55.9542 9.22585C55.815 9.38494 55.7454 9.59706 55.7454 9.86222C55.7454 10.2301 55.8813 10.5085 56.1531 10.6974C56.4249 10.883 56.7712 10.9759 57.1922 10.9759ZM66.042 4.36364V5.55682H61.8709V4.36364H66.042ZM62.9895 2.53409H64.476V9.75781C64.476 10.0462 64.5191 10.2633 64.6053 10.4091C64.6914 10.5516 64.8025 10.6494 64.9384 10.7024C65.0776 10.7521 65.2284 10.777 65.3908 10.777C65.5101 10.777 65.6145 10.7687 65.704 10.7521C65.7935 10.7356 65.8631 10.7223 65.9128 10.7124L66.1813 11.9403C66.0951 11.9735 65.9724 12.0066 65.8134 12.0398C65.6543 12.0762 65.4554 12.0961 65.2168 12.0994C64.8257 12.1061 64.4611 12.0365 64.123 11.8906C63.7849 11.7448 63.5115 11.5194 63.3027 11.2145C63.0939 10.9096 62.9895 10.5268 62.9895 10.0661V2.53409ZM70.7556 12.1541C70.0032 12.1541 69.3552 11.9934 68.8117 11.6719C68.2714 11.3471 67.8538 10.8913 67.5588 10.3047C67.2672 9.71473 67.1213 9.02367 67.1213 8.23153C67.1213 7.44934 67.2672 6.75994 67.5588 6.16335C67.8538 5.56676 68.2648 5.10109 68.7918 4.76633C69.3221 4.43158 69.9419 4.2642 70.6512 4.2642C71.082 4.2642 71.4996 4.33546 71.904 4.47798C72.3084 4.6205 72.6713 4.84422 72.9928 5.14915C73.3143 5.45407 73.5678 5.85014 73.7534 6.33736C73.939 6.82126 74.0318 7.40956 74.0318 8.10227V8.62926H67.9615V7.51562H72.5752C72.5752 7.12453 72.4956 6.77817 72.3365 6.47656C72.1774 6.17164 71.9537 5.93134 71.6654 5.75568C71.3803 5.58002 71.0456 5.49219 70.6611 5.49219C70.2435 5.49219 69.8789 5.59493 69.5674 5.80043C69.2591 6.0026 69.0205 6.26776 68.8514 6.59588C68.6857 6.92069 68.6029 7.27367 68.6029 7.65483V8.52486C68.6029 9.03527 68.6924 9.46946 68.8713 9.82741C69.0536 10.1854 69.3072 10.4588 69.632 10.6477C69.9568 10.8333 70.3363 10.9261 70.7705 10.9261C71.0522 10.9261 71.3091 10.8864 71.5411 10.8068C71.7731 10.724 71.9736 10.6013 72.1426 10.4389C72.3117 10.2765 72.4409 10.076 72.5304 9.83736L73.9374 10.0909C73.8247 10.5052 73.6225 10.8681 73.3308 11.1797C73.0425 11.4879 72.6796 11.7282 72.2421 11.9006C71.8079 12.0696 71.3124 12.1541 70.7556 12.1541Z" fill="white"/>
</svg>
